<svg width="92" height="53" viewBox="0 0 92 53" fill="none" xmlns="http://www.w3.org/2000/svg">
<rect width="92" height="53" fill="#D9D9D9"/>
<path d="M20.8634 30V21.84H21.9554C22.6834 22.88 23.3514 23.928 23.9594 24.984C24.5754 26.032 25.1514 27.128 25.6874 28.272L25.5674 25.152V21.84H26.5874V30H25.4954C24.9354 28.832 24.3554 27.696 23.7554 26.592C23.1634 25.48 22.5154 24.396 21.8114 23.34L21.8834 26.664V30H20.8634ZM34.2366 26.664V27.384C34.2366 28.232 34.0166 28.9 33.5766 29.388C33.1446 29.876 32.5246 30.12 31.7166 30.12C30.9166 30.12 30.2966 29.876 29.8566 29.388C29.4166 28.9 29.1966 28.232 29.1966 27.384V26.664C29.1966 25.832 29.4126 25.172 29.8446 24.684C30.2846 24.188 30.9086 23.94 31.7166 23.94C32.5246 23.94 33.1446 24.188 33.5766 24.684C34.0166 25.172 34.2366 25.832 34.2366 26.664ZM33.2166 26.664C33.2166 26.096 33.0886 25.652 32.8326 25.332C32.5766 25.004 32.2046 24.84 31.7166 24.84C31.2366 24.84 30.8646 25.004 30.6006 25.332C30.3446 25.652 30.2166 26.096 30.2166 26.664V27.384C30.2166 27.976 30.3446 28.432 30.6006 28.752C30.8646 29.072 31.2366 29.232 31.7166 29.232C32.2046 29.232 32.5766 29.072 32.8326 28.752C33.0886 28.432 33.2166 27.976 33.2166 27.384V26.664ZM41.098 30H40.054V21.84H41.098V30ZM46.8317 24.864C46.6077 24.864 46.3557 24.924 46.0757 25.044C45.7957 25.156 45.4437 25.38 45.0197 25.716V30H44.0357V24.06H44.9717V24.888C45.3957 24.536 45.7717 24.292 46.0997 24.156C46.4277 24.012 46.7517 23.94 47.0717 23.94C47.4477 23.94 47.7597 24.028 48.0077 24.204C48.2557 24.372 48.4397 24.616 48.5597 24.936C48.9997 24.56 49.3917 24.3 49.7357 24.156C50.0877 24.012 50.4317 23.94 50.7677 23.94C51.2957 23.94 51.6997 24.116 51.9797 24.468C52.2597 24.812 52.3997 25.304 52.3997 25.944V30H51.4157V26.088C51.4157 25.272 51.1197 24.864 50.5277 24.864C50.3037 24.864 50.0477 24.924 49.7597 25.044C49.4797 25.156 49.1277 25.38 48.7037 25.716C48.7117 25.748 48.7157 25.784 48.7157 25.824C48.7157 25.864 48.7157 25.904 48.7157 25.944V30H47.7317V26.088C47.7317 25.272 47.4317 24.864 46.8317 24.864ZM59.4094 30.06C59.0414 30.06 58.7454 29.976 58.5214 29.808C58.3054 29.64 58.1534 29.432 58.0654 29.184C57.6734 29.528 57.3174 29.772 56.9974 29.916C56.6774 30.052 56.3574 30.12 56.0374 30.12C55.5174 30.12 55.1334 29.952 54.8854 29.616C54.6374 29.28 54.5134 28.868 54.5134 28.38C54.5134 28.052 54.5734 27.76 54.6934 27.504C54.8134 27.248 55.0174 27.048 55.3054 26.904C55.5934 26.752 55.9814 26.676 56.4694 26.676C56.6854 26.676 56.9214 26.692 57.1774 26.724C57.4334 26.748 57.6934 26.78 57.9574 26.82V26.016C57.9574 25.568 57.8574 25.264 57.6574 25.104C57.4654 24.936 57.1814 24.852 56.8054 24.852C56.2934 24.852 55.7214 24.992 55.0894 25.272L54.7774 24.456C55.1454 24.288 55.4974 24.16 55.8334 24.072C56.1694 23.984 56.5094 23.94 56.8534 23.94C57.4134 23.94 57.8414 24.032 58.1374 24.216C58.4334 24.4 58.6374 24.644 58.7494 24.948C58.8614 25.252 58.9174 25.584 58.9174 25.944V28.512C58.9174 28.696 58.9534 28.852 59.0254 28.98C59.0974 29.1 59.2414 29.16 59.4574 29.16H59.5894V30.06H59.4094ZM55.4854 28.368C55.4854 28.64 55.5494 28.86 55.6774 29.028C55.8054 29.196 55.9894 29.28 56.2294 29.28C56.4374 29.28 56.6774 29.22 56.9494 29.1C57.2214 28.972 57.5574 28.72 57.9574 28.344V27.588C57.4134 27.5 56.9334 27.456 56.5174 27.456C56.1494 27.456 55.8854 27.532 55.7254 27.684C55.5654 27.836 55.4854 28.064 55.4854 28.368ZM66.3353 30.744C66.3353 31.328 66.0953 31.796 65.6153 32.148C65.1433 32.5 64.4913 32.676 63.6593 32.676C63.2433 32.676 62.8073 32.62 62.3513 32.508C61.9033 32.396 61.4793 32.216 61.0793 31.968L61.4153 31.2C61.8153 31.424 62.1993 31.58 62.5673 31.668C62.9433 31.764 63.3073 31.812 63.6593 31.812C64.2033 31.812 64.6233 31.724 64.9193 31.548C65.2153 31.372 65.3633 31.136 65.3633 30.84C65.3633 30.624 65.2913 30.456 65.1473 30.336C65.0033 30.224 64.7713 30.168 64.4513 30.168H63.0713C62.5513 30.168 62.1753 30.044 61.9433 29.796C61.7113 29.548 61.5953 29.276 61.5953 28.98C61.5953 28.772 61.6433 28.568 61.7393 28.368C61.8353 28.16 61.9713 27.956 62.1473 27.756C61.8673 27.588 61.6433 27.36 61.4753 27.072C61.3073 26.776 61.2233 26.42 61.2233 26.004C61.2233 25.548 61.3193 25.168 61.5113 24.864C61.7113 24.56 61.9753 24.332 62.3033 24.18C62.6313 24.02 62.9993 23.94 63.4073 23.94H63.6113C63.8913 23.94 64.1473 23.98 64.3793 24.06H66.5153V24.936L65.2193 24.756C65.3873 24.9 65.5233 25.08 65.6273 25.296C65.7313 25.504 65.7833 25.76 65.7833 26.064C65.7833 26.496 65.6833 26.86 65.4833 27.156C65.2913 27.452 65.0313 27.68 64.7033 27.84C64.3753 27.992 64.0113 28.068 63.6113 28.068H63.4073C63.3033 28.068 63.2033 28.064 63.1073 28.056C63.0113 28.04 62.9153 28.024 62.8193 28.008C62.5873 28.264 62.4713 28.516 62.4713 28.764C62.4713 29.084 62.6953 29.244 63.1433 29.244H64.4873C65.0633 29.244 65.5153 29.372 65.8433 29.628C66.1713 29.884 66.3353 30.256 66.3353 30.744ZM63.6113 27.216C63.9233 27.216 64.1993 27.116 64.4393 26.916C64.6793 26.716 64.7993 26.412 64.7993 26.004C64.7993 25.604 64.6793 25.304 64.4393 25.104C64.1993 24.896 63.9233 24.792 63.6113 24.792H63.4073C63.0873 24.792 62.8073 24.896 62.5673 25.104C62.3273 25.304 62.2073 25.604 62.2073 26.004C62.2073 26.412 62.3273 26.716 62.5673 26.916C62.8073 27.116 63.0873 27.216 63.4073 27.216H63.6113ZM72.7257 29.652C72.3657 29.828 72.0057 29.948 71.6457 30.012C71.2857 30.084 70.9537 30.12 70.6497 30.12C69.7937 30.12 69.1537 29.876 68.7297 29.388C68.3137 28.9 68.1057 28.232 68.1057 27.384V26.664C68.1057 25.84 68.3137 25.18 68.7297 24.684C69.1537 24.188 69.7497 23.94 70.5177 23.94C70.9257 23.94 71.2977 24.024 71.6337 24.192C71.9777 24.352 72.2497 24.6 72.4497 24.936C72.6577 25.264 72.7617 25.688 72.7617 26.208C72.7617 26.544 72.7137 26.928 72.6177 27.36H69.0777V27.384C69.0777 27.992 69.2017 28.452 69.4497 28.764C69.7057 29.076 70.1137 29.232 70.6737 29.232C70.9297 29.232 71.2097 29.2 71.5137 29.136C71.8257 29.072 72.1297 28.972 72.4257 28.836L72.7257 29.652ZM70.5177 24.804C70.0537 24.804 69.7017 24.956 69.4617 25.26C69.2297 25.556 69.1017 25.976 69.0777 26.52H71.7657C71.7897 26.376 71.8017 26.24 71.8017 26.112C71.8017 25.664 71.6737 25.336 71.4177 25.128C71.1697 24.912 70.8697 24.804 70.5177 24.804Z" fill="#191A1B"/>
</svg>
